<svg width="141" height="35" viewBox="0 0 141 35" fill="none" xmlns="http://www.w3.org/2000/svg">
<path d="M7.728 28.28C6.14133 28.28 4.77867 28.0093 3.64 27.468C2.52 26.9267 1.50267 26.1147 0.588 25.032L3.108 22.512C3.68667 23.2773 4.35867 23.8747 5.124 24.304C5.88933 24.7147 6.82267 24.92 7.924 24.92C8.91333 24.92 9.69733 24.724 10.276 24.332C10.8733 23.94 11.172 23.3987 11.172 22.708C11.172 22.1107 11.004 21.6253 10.668 21.252C10.332 20.8787 9.884 20.5613 9.324 20.3C8.78267 20.0387 8.176 19.8053 7.504 19.6C6.85067 19.376 6.188 19.124 5.516 18.844C4.86267 18.564 4.256 18.2187 3.696 17.808C3.15467 17.3787 2.716 16.8373 2.38 16.184C2.044 15.512 1.876 14.672 1.876 13.664C1.876 12.4693 2.16533 11.452 2.744 10.612C3.32267 9.772 4.116 9.128 5.124 8.68C6.132 8.232 7.27067 8.008 8.54 8.008C9.884 8.008 11.0973 8.26 12.18 8.764C13.2627 9.268 14.1493 9.92133 14.84 10.724L12.32 13.244C11.7413 12.6093 11.144 12.1427 10.528 11.844C9.93067 11.5453 9.24933 11.396 8.484 11.396C7.60667 11.396 6.916 11.564 6.412 11.9C5.908 12.236 5.656 12.7213 5.656 13.356C5.656 13.8973 5.824 14.336 6.16 14.672C6.496 15.008 6.93467 15.2973 7.476 15.54C8.036 15.7827 8.64267 16.016 9.296 16.24C9.968 16.464 10.6307 16.716 11.284 16.996C11.956 17.276 12.5627 17.64 13.104 18.088C13.664 18.536 14.112 19.1147 14.448 19.824C14.784 20.5147 14.952 21.3733 14.952 22.4C14.952 24.2293 14.308 25.6667 13.02 26.712C11.732 27.7573 9.968 28.28 7.728 28.28ZM19.5534 28V8.848H23.2214V28H19.5534ZM16.3894 17.696V14.476H26.3854V17.696H16.3894ZM33.7761 28.28C32.5441 28.28 31.4334 27.972 30.4441 27.356C29.4548 26.74 28.6801 25.9 28.1201 24.836C27.5601 23.772 27.2801 22.5773 27.2801 21.252C27.2801 19.908 27.5601 18.704 28.1201 17.64C28.6801 16.576 29.4548 15.736 30.4441 15.12C31.4334 14.504 32.5441 14.196 33.7761 14.196C34.7468 14.196 35.6148 14.392 36.3801 14.784C37.1454 15.176 37.7521 15.7267 38.2001 16.436C38.6668 17.1267 38.9188 17.9107 38.9561 18.788V23.66C38.9188 24.556 38.6668 25.3493 38.2001 26.04C37.7521 26.7307 37.1454 27.2813 36.3801 27.692C35.6148 28.084 34.7468 28.28 33.7761 28.28ZM34.4481 24.892C35.4748 24.892 36.3054 24.556 36.9401 23.884C37.5748 23.1933 37.8921 22.3067 37.8921 21.224C37.8921 20.5147 37.7428 19.8893 37.4441 19.348C37.1641 18.788 36.7628 18.3587 36.2401 18.06C35.7361 17.7427 35.1388 17.584 34.4481 17.584C33.7761 17.584 33.1788 17.7427 32.6561 18.06C32.1521 18.3587 31.7508 18.788 31.4521 19.348C31.1721 19.8893 31.0321 20.5147 31.0321 21.224C31.0321 21.952 31.1721 22.596 31.4521 23.156C31.7508 23.6973 32.1521 24.1267 32.6561 24.444C33.1788 24.7427 33.7761 24.892 34.4481 24.892ZM37.6961 28V24.36L38.2841 21.056L37.6961 17.808V14.476H41.3361V28H37.6961ZM48.837 28.112L43.181 14.476H47.157L50.909 24.892H49.565L53.457 14.476H57.461L51.441 28.112H48.837ZM45.085 33.656L49.201 24.948L51.441 28.112L48.977 33.656H45.085ZM59.7113 28V8.316H63.5193V28H59.7113ZM62.5113 19.936V16.548H72.4233V19.936H62.5113ZM62.5113 11.676V8.316H72.8993V11.676H62.5113ZM75.5068 28V14.476H79.2028V28H75.5068ZM77.3548 12.292C76.7575 12.292 76.2628 12.096 75.8708 11.704C75.4788 11.2933 75.2828 10.7893 75.2828 10.192C75.2828 9.61333 75.4788 9.11867 75.8708 8.708C76.2628 8.29733 76.7575 8.092 77.3548 8.092C77.9708 8.092 78.4655 8.29733 78.8388 8.708C79.2308 9.11867 79.4268 9.61333 79.4268 10.192C79.4268 10.7893 79.2308 11.2933 78.8388 11.704C78.4655 12.096 77.9708 12.292 77.3548 12.292ZM91.5521 28V20.244C91.5521 19.4413 91.3001 18.788 90.7961 18.284C90.2921 17.78 89.6388 17.528 88.8361 17.528C88.3135 17.528 87.8468 17.64 87.4361 17.864C87.0255 18.088 86.6988 18.4053 86.4561 18.816C86.2321 19.2267 86.1201 19.7027 86.1201 20.244L84.6921 19.516C84.6921 18.452 84.9161 17.528 85.3641 16.744C85.8308 15.9413 86.4655 15.316 87.2681 14.868C88.0895 14.42 89.0135 14.196 90.0401 14.196C91.0295 14.196 91.9161 14.448 92.7001 14.952C93.4841 15.4373 94.1001 16.0813 94.5481 16.884C94.9961 17.668 95.2201 18.5173 95.2201 19.432V28H91.5521ZM82.4521 28V14.476H86.1201V28H82.4521ZM103.887 28.28C102.636 28.28 101.516 27.972 100.527 27.356C99.5374 26.74 98.7534 25.9 98.1748 24.836C97.6148 23.772 97.3348 22.5773 97.3348 21.252C97.3348 19.908 97.6148 18.704 98.1748 17.64C98.7534 16.576 99.5281 15.736 100.499 15.12C101.488 14.504 102.617 14.196 103.887 14.196C104.857 14.196 105.725 14.392 106.491 14.784C107.275 15.176 107.9 15.7267 108.367 16.436C108.852 17.1267 109.113 17.9107 109.151 18.788V23.604C109.113 24.4813 108.861 25.2747 108.395 25.984C107.928 26.6933 107.303 27.2533 106.519 27.664C105.735 28.0747 104.857 28.28 103.887 28.28ZM104.503 24.892C105.193 24.892 105.791 24.7427 106.295 24.444C106.817 24.1267 107.219 23.6973 107.499 23.156C107.797 22.596 107.947 21.952 107.947 21.224C107.947 20.5147 107.797 19.8893 107.499 19.348C107.219 18.788 106.817 18.3587 106.295 18.06C105.791 17.7427 105.203 17.584 104.531 17.584C103.84 17.584 103.233 17.7427 102.711 18.06C102.207 18.3773 101.805 18.8067 101.507 19.348C101.227 19.8893 101.087 20.5147 101.087 21.224C101.087 21.952 101.227 22.596 101.507 23.156C101.805 23.6973 102.216 24.1267 102.739 24.444C103.261 24.7427 103.849 24.892 104.503 24.892ZM111.391 28H107.751V24.36L108.339 21.056L107.723 17.808V7.756H111.391V28ZM121.104 28.28C119.685 28.28 118.425 27.9813 117.324 27.384C116.222 26.768 115.345 25.928 114.692 24.864C114.057 23.8 113.74 22.5867 113.74 21.224C113.74 19.88 114.048 18.6853 114.664 17.64C115.298 16.576 116.157 15.736 117.24 15.12C118.322 14.4853 119.526 14.168 120.852 14.168C122.158 14.168 123.306 14.4667 124.296 15.064C125.304 15.6427 126.088 16.4453 126.648 17.472C127.226 18.48 127.516 19.628 127.516 20.916C127.516 21.1587 127.497 21.4107 127.46 21.672C127.441 21.9147 127.394 22.1947 127.32 22.512L115.952 22.54V19.796L125.612 19.768L124.128 20.916C124.09 20.1133 123.941 19.4413 123.68 18.9C123.437 18.3587 123.073 17.948 122.588 17.668C122.121 17.3693 121.542 17.22 120.852 17.22C120.124 17.22 119.489 17.388 118.948 17.724C118.406 18.0413 117.986 18.4987 117.688 19.096C117.408 19.6747 117.268 20.3653 117.268 21.168C117.268 21.9893 117.417 22.708 117.716 23.324C118.033 23.9213 118.481 24.388 119.06 24.724C119.638 25.0413 120.31 25.2 121.076 25.2C121.766 25.2 122.392 25.088 122.952 24.864C123.512 24.6213 123.997 24.2667 124.408 23.8L126.564 25.956C125.91 26.7213 125.108 27.3 124.156 27.692C123.222 28.084 122.205 28.28 121.104 28.28ZM129.784 28V14.476H133.452V28H129.784ZM133.452 20.524L132.024 19.572C132.192 17.9107 132.677 16.604 133.48 15.652C134.283 14.6813 135.44 14.196 136.952 14.196C137.605 14.196 138.193 14.308 138.716 14.532C139.239 14.7373 139.715 15.0827 140.144 15.568L137.848 18.2C137.643 17.976 137.391 17.808 137.092 17.696C136.812 17.584 136.485 17.528 136.112 17.528C135.328 17.528 134.684 17.78 134.18 18.284C133.695 18.7693 133.452 19.516 133.452 20.524Z" fill="white"/>
</svg>
